REM DIRINDEX 1\4,1\2\5,1\2\6,1\3\7,1\3\8
REM DIRNAME cjc124,folder01,folder02,folder03,folder04,folder05,folder06,folder07
TITLE ""
FILE "045_Day23_Check2_Phrases.mp3" MP3
  TRACK 01 AUDIO
    TITLE "0:"
    INDEX 01 00:00:00
  TRACK 02 AUDIO
    TITLE "4:cjc124_1455"
    INDEX 01 00:00:31
  TRACK 03 AUDIO
    TITLE "0:"
    INDEX 01 00:01:44
  TRACK 04 AUDIO
    TITLE "5:cjc124_1456"
    INDEX 01 00:02:02
  TRACK 05 AUDIO
    TITLE "0:"
    INDEX 01 00:03:51
  TRACK 06 AUDIO
    TITLE "6:cjc124_1457"
    INDEX 01 00:03:70
  TRACK 07 AUDIO
    TITLE "0:"
    INDEX 01 00:05:18
  TRACK 08 AUDIO
    TITLE "5:cjc124_1458"
    INDEX 01 00:05:54
  TRACK 09 AUDIO
    TITLE "0:"
    INDEX 01 00:07:21
  TRACK 10 AUDIO
    TITLE "6:cjc124_1459"
    INDEX 01 00:07:43
  TRACK 11 AUDIO
    TITLE "0:"
    INDEX 01 00:09:08
  TRACK 12 AUDIO
    TITLE "5:cjc124_1460"
    INDEX 01 00:09:49
  TRACK 13 AUDIO
    TITLE "0:"
    INDEX 01 00:11:46
  TRACK 14 AUDIO
    TITLE "6:cjc124_1461"
    INDEX 01 00:11:64
  TRACK 15 AUDIO
    TITLE "0:"
    INDEX 01 00:13:18
  TRACK 16 AUDIO
    TITLE "5:cjc124_1462"
    INDEX 01 00:13:59
  TRACK 17 AUDIO
    TITLE "0:"
    INDEX 01 00:15:21
  TRACK 18 AUDIO
    TITLE "6:cjc124_1463"
    INDEX 01 00:15:44
  TRACK 19 AUDIO
    TITLE "0:"
    INDEX 01 00:16:57
  TRACK 20 AUDIO
    TITLE "5:cjc124_1464"
    INDEX 01 00:17:18
  TRACK 21 AUDIO
    TITLE "0:"
    INDEX 01 00:18:46
  TRACK 22 AUDIO
    TITLE "6:cjc124_1465"
    INDEX 01 00:18:74
  TRACK 23 AUDIO
    TITLE "0:"
    INDEX 01 00:20:18
  TRACK 24 AUDIO
    TITLE "5:cjc124_1466"
    INDEX 01 00:20:63
  TRACK 25 AUDIO
    TITLE "0:"
    INDEX 01 00:22:68
  TRACK 26 AUDIO
    TITLE "6:cjc124_1467"
    INDEX 01 00:23:12
  TRACK 27 AUDIO
    TITLE "0:"
    INDEX 01 00:24:69
  TRACK 28 AUDIO
    TITLE "5:cjc124_1468"
    INDEX 01 00:25:35
  TRACK 29 AUDIO
    TITLE "0:"
    INDEX 01 00:26:71
  TRACK 30 AUDIO
    TITLE "6:cjc124_1469"
    INDEX 01 00:27:18
  TRACK 31 AUDIO
    TITLE "0:"
    INDEX 01 00:28:64
  TRACK 32 AUDIO
    TITLE "5:cjc124_1470"
    INDEX 01 00:29:29
  TRACK 33 AUDIO
    TITLE "0:"
    INDEX 01 00:31:29
  TRACK 34 AUDIO
    TITLE "6:cjc124_1471"
    INDEX 01 00:31:47
  TRACK 35 AUDIO
    TITLE "0:"
    INDEX 01 00:33:30
  TRACK 36 AUDIO
    TITLE "5:cjc124_1472"
    INDEX 01 00:33:68
  TRACK 37 AUDIO
    TITLE "0:"
    INDEX 01 00:35:70
  TRACK 38 AUDIO
    TITLE "6:cjc124_1473"
    INDEX 01 00:36:11
  TRACK 39 AUDIO
    TITLE "0:"
    INDEX 01 00:37:54
  TRACK 40 AUDIO
    TITLE "5:cjc124_1474"
    INDEX 01 00:38:20
  TRACK 41 AUDIO
    TITLE "0:"
    INDEX 01 00:39:74
  TRACK 42 AUDIO
    TITLE "6:cjc124_1475"
    INDEX 01 00:40:17
  TRACK 43 AUDIO
    TITLE "0:"
    INDEX 01 00:41:59
  TRACK 44 AUDIO
    TITLE "5:cjc124_1476"
    INDEX 01 00:42:21
  TRACK 45 AUDIO
    TITLE "0:"
    INDEX 01 00:44:30
  TRACK 46 AUDIO
    TITLE "6:cjc124_1477"
    INDEX 01 00:44:50
  TRACK 47 AUDIO
    TITLE "0:"
    INDEX 01 00:46:02
  TRACK 48 AUDIO
    TITLE "5:cjc124_1478"
    INDEX 01 00:46:43
  TRACK 49 AUDIO
    TITLE "0:"
    INDEX 01 00:48:26
  TRACK 50 AUDIO
    TITLE "6:cjc124_1479"
    INDEX 01 00:48:46
  TRACK 51 AUDIO
    TITLE "0:"
    INDEX 01 00:50:09
  TRACK 52 AUDIO
    TITLE "5:cjc124_1480"
    INDEX 01 00:50:46
  TRACK 53 AUDIO
    TITLE "0:"
    INDEX 01 00:52:36
  TRACK 54 AUDIO
    TITLE "6:cjc124_1481"
    INDEX 01 00:52:53
  TRACK 55 AUDIO
    TITLE "0:"
    INDEX 01 00:54:42
  TRACK 56 AUDIO
    TITLE "5:cjc124_1482"
    INDEX 01 00:55:04
  TRACK 57 AUDIO
    TITLE "0:"
    INDEX 01 00:57:01
  TRACK 58 AUDIO
    TITLE "6:cjc124_1483"
    INDEX 01 00:57:33
  TRACK 59 AUDIO
    TITLE "0:"
    INDEX 01 00:58:66
  TRACK 60 AUDIO
    TITLE "5:cjc124_1484"
    INDEX 01 00:59:28
  TRACK 61 AUDIO
    TITLE "0:"
    INDEX 01 01:01:23
  TRACK 62 AUDIO
    TITLE "6:cjc124_1485"
    INDEX 01 01:01:42
  TRACK 63 AUDIO
    TITLE "0:"
    INDEX 01 01:03:18
  TRACK 64 AUDIO
    TITLE "5:cjc124_1486"
    INDEX 01 01:03:57
  TRACK 65 AUDIO
    TITLE "0:"
    INDEX 01 01:05:28
  TRACK 66 AUDIO
    TITLE "6:cjc124_1487"
    INDEX 01 01:05:48
  TRACK 67 AUDIO
    TITLE "0:"
    INDEX 01 01:07:15
